<?xml version="1.0" encoding="UTF-8"?>
<svg id="Layer_1" xmlns="http://www.w3.org/2000/svg" baseProfile="tiny" version="1.2" viewBox="0 0 60 60">
  <!-- Generator: Adobe Illustrator 29.1.0, SVG Export Plug-In . SVG Version: 2.1.0 Build 142)  -->
  <path d="M42.8,23.6h15.2c1,0,1.1,3.1,1.2,4.1,0,1.8.3,5.6.4,7.3s-.3,2.8-1.9,3-1.8.6-3.4.8.1,0-2.1.3-5,.8-8,1.1-3.1,1.7-3,3.4l.3,13.3c0,.4-.1.9-.4,1.2h0c-.6.8-1.9.9-2.9,1-6.5.5-10,1-14.9-.5s-2.3-4.5-2.2-6.9-.6-4.6-.7-6.9-.9-1.8-1.9-1.8-1.8,0-2,0c-.6,0-.6,0-1.2,0-3.2-.1-11.2,1-13.1-1.6-1.6-2.2-1.2-5.5-1.3-7.9s-.9-8.6.7-9.4,8.8-.2,11.9-.4,3.3-.5,5-.8,1.6-1,1.5-1.9c-.4-5.7-.8-11.3-.8-17,0-.4.1-.7.3-1C20.8.4,29.3.3,34.1.6c.7,0,1.5,0,2.4.2,1.3.2,1.9.7,2,1.8l1,20.4c0,.9,2.4.6,3.3.6ZM19.4,26.4c-4.9.2-2,0-8.2.4l-6.6.3c-1.1.5-.8,2.3-.7,3,.2,2.2-.9,9.3,1.1,10s5.4.2,6.9.2,6.7,0,7.4,0,1.2,0,2.7.2,1.5,2.3,1.6,2.9c.3,5.3.3,6.8.8,11.2s.8,1.7,1.7,2c3.2.7,10,.4,11,0,1.5-.6,1.7-5,1.5-6.3-.3-2.7-.6-5.1-.5-8.1s0-1.5,1.4-2.8,2.2-1.5,3.7-1.7c2.6-.4,5.1-.5,8.3-.9s4.4,0,4.6-1.3,0-2.6,0-3c0-1.1.3-5.9-.9-6.3s-5.8.2-8.4,0-3.4.4-10.3-.5c-.9-.1-.9-3.9-.8-4.8.1-2.9,0-6.5,0-9.5,0-1.2,0-2.3,0-3.6s.3-4.9-1.3-4.9h-7.3c-1.1.1-2.1.3-3.1.6s-2,.8-2.1,1.4c-.1,1.4.4,4.3.3,5.8-.1,3.7.6,8.2.3,11.5,0,.7.4,3.7-1.5,4.2h-1.6Z" fill="#242424"/>
</svg>