<?xml version="1.0" encoding="UTF-8"?>
<svg id="Layer_1" xmlns="http://www.w3.org/2000/svg" version="1.1" viewBox="0 0 60 60">
  <!-- Generator: Adobe Illustrator 29.1.0, SVG Export Plug-In . SVG Version: 2.1.0 Build 142)  -->
  <defs>
    <style>
      .st0 {
        fill: #242424;
      }
    </style>
  </defs>
  <path class="st0" d="M39.2,15.2c0-5.1-4.1-9.2-9.2-9.2s-9.2,4.1-9.2,9.2,4.1,9.2,9.2,9.2,9.2-4.1,9.2-9.2ZM15.2,15.2C15.2,7.1,21.9.5,30,.5s14.8,6.6,14.8,14.8-6.6,14.8-14.8,14.8-14.8-6.6-14.8-14.8ZM9.9,54h40.3c-1-7.3-7.3-12.9-14.9-12.9h-10.5c-7.6,0-13.8,5.6-14.9,12.9h0ZM4.2,56.1c0-11.4,9.2-20.5,20.5-20.5h10.5c11.4,0,20.5,9.2,20.5,20.5s-1.5,3.4-3.4,3.4H7.6c-1.9,0-3.4-1.5-3.4-3.4Z"/>
</svg>