<?xml version="1.0" encoding="UTF-8"?>
<svg id="Layer_1" xmlns="http://www.w3.org/2000/svg" baseProfile="tiny" version="1.2" viewBox="0 0 60 60">
  <!-- Generator: Adobe Illustrator 29.1.0, SVG Export Plug-In . SVG Version: 2.1.0 Build 142)  -->
  <path d="M33.1,57.6c-2.3,1.8-6.6,2.6-9.3.9-.2-.1-2.7-2.7-2.8-2.9-.3-.4-.8-1.2-1.2-1.8-5.2-8-14.2-27.3-13.6-36.2.2-3.2.8-6.7,3.3-9.2C18.3-.4,31.3-1.3,43.3,3.1c2.6.9,4.3,1.3,5.9,3.7,3.2,4.9,5.2,14.4,4.3,20-1.3,8-10.8,17.4-15.9,24.3-1.5,2.1-2.2,4.7-4.6,6.6ZM36.6,47.2c9.5-10.2,19.4-27.1,6.4-38.6-2.4-2.1-6.7-3-10-3.2-8.3-.4-14,2.2-15.5,3.5-2.6,2.3-5.6,5.6-6.5,8.6-2.7,9.1,4.4,16.3,9.1,23.5,2.8,4.2,2.3,6,3.4,10.2.5,1.7,1.7,4.5,3.2,4.6,2.4.2,4.7-3,6.3-4.8s2.4-2.5,3.6-3.7Z" fill="#242424"/>
  <path d="M28.5,14.7c6.2-.2,11.1,3.1,10.9,7.9-.4,8.3-16.1,12.4-20.9,4.8s1.5-12.4,10-12.7ZM25.6,17.4c-4.3.7-7.8,9.3-1,10.9s10.9.7,11-4.4c0-4.1.3-4.6-3.8-6s-4.3-.8-6.2-.5Z" fill="#242424"/>
</svg>