<?xml version="1.0" encoding="UTF-8"?>
<svg id="Layer_1" xmlns="http://www.w3.org/2000/svg" baseProfile="tiny" version="1.2" viewBox="0 0 60 60">
  <!-- Generator: Adobe Illustrator 29.1.0, SVG Export Plug-In . SVG Version: 2.1.0 Build 142)  -->
  <path d="M29.9,12.6c1.2-7.3,7.9-11.8,14.3-11.6s11.5,3,13.5,6.9c3.7,7.3,1.4,14.5-2.7,20.7-1.7,2.6-3.2,5.4-4.9,8.1-4.9,7.7-12.4,10.6-17.7,18.6-1,1.5-1.1,3.7-2.9,4.1s-2.2.2-2.7-.4-2.8-5.5-3.5-6.6c-5.2-8.3-11.9-12-16.8-20.8C2.5,24.9-2.3,14.3,2.6,6.8S21.7-.4,27.4,8.9c.1.2,1.7,4.6,2.5,3.7Z" fill="#242424"/>
</svg>