<?xml version="1.0" encoding="UTF-8"?>
<svg id="Layer_1" xmlns="http://www.w3.org/2000/svg" baseProfile="tiny" version="1.2" viewBox="0 0 60 60">
  <!-- Generator: Adobe Illustrator 29.1.0, SVG Export Plug-In . SVG Version: 2.1.0 Build 142)  -->
  <path d="M29.9,12.6c1.2-7.3,7.9-11.8,14.3-11.6s11.5,3,13.5,6.9c3.7,7.3,1.4,14.5-2.7,20.7-1.7,2.6-3.2,5.4-4.9,8.1-4.9,7.7-12.4,10.6-17.7,18.6-1,1.5-1.1,3.7-2.9,4.1s-2.2.2-2.7-.4-2.8-5.5-3.5-6.6c-5.2-8.3-11.9-12-16.8-20.8C2.5,24.9-2.3,14.3,2.6,6.8S21.7-.4,27.4,8.9c.1.2,1.7,4.6,2.5,3.7ZM31.2,15.8c-.4,2-3.3,2-3.6,0s-.2-1-.4-1.5c-1.6-4.8-4.6-7.9-9-9-7.3-1.8-9.5.2-10.7,1.3-4.9,4.3-3.9,12-1.6,16,2.1,3.6,5.9,7.8,8.1,11.1,1.6,2.4,4.3,4.2,5.7,6.8s2.8,3.9,3.8,5.8,2.4,5.3,3.6,7.7c1.2,3.9,2,.5,2.9-.6,2.3-2.8,5.4-6.1,7.6-9,4.3-5.7,14-13.9,16.3-20.5s2.6-8.2,1.8-12.8-1.2-4.4-9.1-7.4-6.9.7-9.1,1.8-5.1,6.6-5.7,8.3-.4,1.4-.6,2.1Z" fill="#242424"/>
</svg>