<?xml version="1.0" encoding="UTF-8"?>
<svg id="Layer_1" xmlns="http://www.w3.org/2000/svg" baseProfile="tiny" version="1.2" viewBox="0 0 60 60">
  <!-- Generator: Adobe Illustrator 29.1.0, SVG Export Plug-In . SVG Version: 2.1.0 Build 142)  -->
  <path d="M54.1,54.3c-.3.4-1.5,1-2.2,1.4-1.9,1.2-4.8,1.8-7.2,2.6-.9.3-1.8.4-2.7.3-2-.2-3.8,0-5.7.1s-3.2.2-4.3.2c-5.9,0-12,.2-18,.2-2,0-5.7-1-7.6-1.8s-2.2-1.2-2.3-1.3c-.2-.2-.9-1.3-1-1.7C.3,48,.7,36.4.6,29.1s-.5-13,.4-18.2c.6-3.4,2.8-5,5-7s2-1.4,3.1-1.7c2.9-.7,5.9-1.6,8.9-1.5s8.5,1.4,11.3,1,3.8-.5,6.5-.5c6.1,0,11-1.3,17,1.3s3.2,2.5,4,4.7c2.6,7.4,3.3,23.6,2.2,31.4-.9,6.6-.6,11-4.9,15.5ZM44.5,5.5s-.2,0-.9.3c-4.2,1.9-13,3.1-17.5,2.4s-3.8-1.3-5.6-1.8c-3.6-1-7.9-2-11.2.4s-4.3,5.1-4.3,6.9c-.1,9,2.4,18,2.6,26.9,0,1.5-1,4.8-.9,6.5.2,2.6,2.5,4.3,4.5,5.3,3.9,1.9,8.2,1.3,12.3,1.4s2.7-.3,4-.4c2.7-.3,6.4.8,9.1,1.1s7.5.8,9.2,0c4.3-2.3,8.1-7.4,8.6-12.8s-1.2-8.3-1.1-12.9,2.1-9,1.6-13-.3-2.2-.4-3.3-2.3-5.6-2.9-6.1c-1-.9-5.9-1.2-7.1-.8Z" fill="#f5f5f0"/>
  <path d="M41.2,23.8c.7.8,2.1,4.1,2.2,5.2s0,5-.2,5.8c-4.4,9.9-17.2,11.2-23.5,2.5s-1.8-6.4-.7-9.5,1.5-3.5,3.3-5.4,1-.9,1.6-1.2c1.3-.5,4.7-1.5,6-1.7,3.4-.5,8.9,1.7,11.3,4.4ZM25.7,37.9c4.1,3.3,7.8,1.6,11.8-1.6,1.8-1.4,1.6-1.6,1.8-3.4s0-.7,0-1.2c-.3-3.6-2.9-7.1-5.5-8.2-4.2-1.7-8.3-1-10.9,3.2-.2.4-.4.6-.5.7-.4.4-.7.9-1,1.4h0c0,0,0,.2,0,.2-.3,2.2-.1,1.9.1,2.8.4,1.3.7,1.9,1.1,2.8.9,2,1.7,2.1,3.2,3.3Z" fill="#f5f5f0"/>
  <path d="M44.8,9.1c1.2-.2,4,1.1,4.4,2.5.9,3.3,0,6.4-3.6,6.1-3.8-.3-4.9-7.9-.9-8.6Z" fill="#f5f5f0"/>
</svg>