<?xml version="1.0" encoding="UTF-8"?>
<svg id="Layer_1" xmlns="http://www.w3.org/2000/svg" baseProfile="tiny" version="1.2" viewBox="0 0 60 60">
  <!-- Generator: Adobe Illustrator 29.1.0, SVG Export Plug-In . SVG Version: 2.1.0 Build 142)  -->
  <path d="M5,55.9c-1.2-.9-3.7-3.4-4.2-4.7s0-8.2.1-10.4c.1-4,0-8.1.2-12.2s1.4-10.2.6-12.9-.5-2.4-.4-5.1c0-.4,0-.6,0-1.2s.2-.7.5-1.2c.4-.7.4-1.4.9-2.2,1-1.4,3.3-2.6,4.9-3.1s6.6-1.7,8.6-1.5,1.9.6,2.9.6c5.7.5,11.2-1.7,17.3-1.6,6.9.1,15.3,1.1,20.1,6.6,3.4,3.9,2.4,11,2.8,16.2s.1,2.4,0,3.7c-.3,6.4-.2,13-.6,19.5-.2,3.4-.9,7.8-3.6,10.1-2.7,2.3-8.6,1.8-11.9,1.8-6.8,0-13.8.7-20.6.9-7,.2-11.7,1.1-17.8-3.4ZM7.4,7.2c-1.8,2-2,5.6-1.7,8.1.2,2,1.3,4.6,1.4,6.5.2,5.7-.4,9.9-1.5,15.5-.1.5-.3,2.4-.4,2.9-.5,2.5-.5,6-.3,8.4s.3,3,1.9,4.5c2.6,2.4,11.4,2.8,14.7,2,6-1.6,10.2-2.6,16.6-1.1,4.7-.7,9.5,1.6,13.7-1.2,1.9-1.3,2.6-4,3.2-6.1,1.4-5.3,1.3-10,.5-15.4-.7-4.9-.6-7.2.2-12.1s.3-5.7-.4-6.9-.8-2.1-1-2.4c-.9-1.5-.7-2-2.7-2.8s-1.5-.5-2.7-1.1c-2.3-1.1-4.2-.1-6.4.3s-5.1.9-6.7.9-3-.2-4.3-.3c-5.9-.7-11.9-2.2-18-2.3s-2.2.4-2.7.6-3.1,1.6-3.5,2Z" fill="#f5f5f0"/>
  <path d="M35.9,48c-.3.3-4.7.8-5.5.8s-2.2-.3-3.3-.7-1-.7-1-1.3c0-6.8.6-13.5.2-20.2,0-.4.2-1.3.5-1.5.5-.4.9-.7,1.2-.8.8-.2,1.4.1,2,.1s1.5.7,2.1.7,1.2-.8,1.6-1c.6-.3,1-.5,1.5-.7,3.2-1.2,8.9-1.1,11.7,1.3s2.3,2.3,2.4,2.4,1,2.2,1,2.3c0,.8,0,1.5.2,2.7.6,3.9.7,9.9.1,13.9s.7,1.3-.3,2.1-3,.7-4.4.4-4.6.4-4.6-2.6.7-5.3.2-8.1-1.6-3.2-2-3.5c-1.4-1.3-4,0-4.4,1.8-.2,1.3,0,6.7.2,8.1s1.5,3,.4,3.9ZM44.1,26.6c-1.6-.6-6.3-.8-8-.2s-.8.2-2.2.8-.7,1.7-1.3,1.7c-1.9,0-.9-1.8-1.7-2.4s-.6-.2-.9-.3c-.8,0-1.5.6-1.5,1.4l.2,17.3c0,.7.6,1.3,1.3,1.4s1.1,0,1.7,0,1.3-.6,1.3-1.3c.2-3.7-.8-7.5.1-11.1.1-.5.6-1.9,1-2.1.5-.4,2.5-.7,2.8-.7.6,0,3.1,0,3.7,0,1.9.3,4.6,2.9,4.9,4.8s.1,5.3,0,8,.3,2.3,1,2.4.9,0,.9.1c.8.1.8-1.7.8-2.5,0-4.4.3-8.8-.5-13,0-.1,0-.2-.1-.3-.7-1.6-.8-2.4-2.4-3.3s-1.3-.7-1.3-.7Z" fill="#f5f5f0"/>
  <path d="M17.4,24.4c.1,0,2.7,0,3,0s2.4.5,2.6.6c1.8,1,1.7,3.6,1.7,5.4,0,3.1-1,6.3-1,9.6s.2,2.4.2,3.8.2,4.1-.5,5-5.4,1.6-6.9,1.4c-2.7-.4-3.2-.9-3.3-3.8s.2-5.5.5-8.4.3-3.3.4-3.7.1-.6.2-1c.1-.6.2-1.7.1-2.3s0-2.6,0-3,.5-2.8.6-2.9c.6-.7,1-.7,1.6-.8s.6,0,.8,0ZM20.3,47.9c.7-.3,1.1-1,1.2-1.7.1-1.2.3-2.9.3-3.2,0-3.8.4-7.5.4-11.2,0-1.7.7-5-1.8-4.9s-1.6.5-1.8,1.6-.2,4.1-.2,4.7,0,2.2,0,3.2-.1,1.8-.1,2.5c0,1.3.2,5.9-.3,7.5s-1.2,1.7,0,2,1.5,0,2.2-.4Z" fill="#f5f5f0"/>
  <path d="M20.2,9.1c1.3.4,1.5.5,1.7.7,1.4.9,3.6,2.9,3.9,4.7s.2,2.7.1,3c-.2.9-2.7,3.1-3.6,3.3-1.4.4-3.9,0-5.3-.5s-3.1-3.1-3.4-4c-.6-1.5-.5-3.4.5-4.8s1.5-1.5,1.6-1.5c.4-.3.7-.7,3.2-.9s.8,0,1.3,0ZM17.6,12.5c-.2.1-.9,1.2-1,1.5-.9,1.7.6,4.1,2.4,4.6s3.6,0,4.5-1.8c1.5-3.2-1.7-4.8-2.7-4.9s-2.5,0-3.3.6Z" fill="#f5f5f0"/>
</svg>