<?xml version="1.0" encoding="UTF-8"?>
<svg id="Layer_1" xmlns="http://www.w3.org/2000/svg" baseProfile="tiny" version="1.2" viewBox="0 0 60 60">
  <!-- Generator: Adobe Illustrator 29.1.0, SVG Export Plug-In . SVG Version: 2.1.0 Build 142)  -->
  <path d="M38,2.1c2.4,1.5,3.1,4.9,3.4,7.5s.8,1.4,1.6,1.3c3.2-.3,6-.3,9.2.4.8.2,3.8,1,4.3,1.3s2.5,2.9,2.6,3.2c.8,2.3.1,5.6,0,7.9-.1,9.1-.1,22.4-5.8,30.5-1.6,2.4-2.9,3.4-6.3,4.3-6.6,1.9-11.1.4-17.4.4s-3.8.4-5.6.4c-6.7,0-16.1-.5-20.5-4.8-6.3-6.1-.9-26.3-.7-34.3s-1.2-4.8,0-6.7.8-1.4,1.1-1.6c3-2,8.5-1.2,12.6-1.5s2.1.5,2.9,0,1-3,1.5-4c1.3-2.4,3-4.2,6.3-5.2s7.4-1.3,10.7.7ZM32.7,3.2c-5.1.4-7.9,3.2-9.7,6.5s-1,1.4-.3,1.8c1.6.1,11.4.2,14.8-.1s1.3-.7,1.3-1.4c.1-3.1-1-7.1-6.1-6.7ZM50.4,53.5c6.4-6.3,3.3-13.9,3.9-21,.3-4,3.9-12.9,1.9-16.2-1.8-3.2-7.6-3.3-11.5-2.9s-1.2.2-2,.3-1.2.7-1.2,1.4c0,2.3.5,5.5.7,7.7s.1,1.6,0,2c-.2.7-3.4,1.1-4.7,1s-.8-1.8-.7-2.7l1.8-6.9c.1-.9-.6-1.7-1.6-1.7-2.6.2-5.1,1.1-7.7,1.1s-4-.4-6-.5-1.4.5-1.5,1.2c-.5,2.4-.9,5.1,0,7.3s2,1.3,1.7,2.1c-.4,1.1-6.7,2.1-6.8-.5s2-1.6,2.3-2.8l.2-6.5c0-.6-.4-1.2-1-1.4-3.1-1-8.8-1.4-10.8.3s-1.1,2.2-1.1,2.5c0,2.4.8,5.4.6,7.9-.3,4.4-2.8,8.6-2.9,13.1,0,6.2,5,15.4,12.5,18.3,2.4.9,8,.5,11,.5s7.3.3,11.3,0,9.1-.9,11.7-3.5Z" fill="#242424"/>
</svg>