<?xml version="1.0" encoding="UTF-8"?>
<svg id="Layer_1" xmlns="http://www.w3.org/2000/svg" baseProfile="tiny" version="1.2" viewBox="0 0 60 60">
  <!-- Generator: Adobe Illustrator 29.1.0, SVG Export Plug-In . SVG Version: 2.1.0 Build 142)  -->
  <path d="M49.2,3.9c1.6,2.2,3.1,4.6,4.8,6.8,1.4,1.8,5.1,4.9,5.5,7.1.2,1,0,2.4,0,3.5,0,1.8.3,2-2,2.9s-.3-.1-.3.6l1.5,34.5c-.2.4-4.6,0-5.5,0s-5,.5-4.8-.5l-1.6-28.8c-2.1-.4-3.8.7-5.8.9-3.1.4-6.5.2-9.7.3l1.2,28.2-24.7-.2c-2.1-3-1.2-6.6-1.4-10.1-.4-7.3-1.4-14.5-1.7-21.8-.4-1.8-1.7-1.3-2.7-1.4s-.9-1.5-1-1.7c-.2-.7-.5-5.4-.4-6.2s.4-1.2.9-1.9c2.6-3.8,5.7-7.1,8.4-10.8s.8-1.2,1-1.4c.6-.7,2.4-2.7,3.4-2.8,7.4-.7,15.6-.1,23-.3,2.6,0,5.7-.4,8.2-.4s2.6,1.7,3.9,3.4ZM54.6,21.8c1.3-.2,2.3-1.3,2.3-2.7s.1-1.7-.1-2.4-7.2-8.6-8.1-9.5-2.2-2.2-2.6-2.4-3-.4-3.6-.4c-6.8-.2-14.5,1.2-21.3,1.6-1.9.1-4.1-.3-5.9,0s-1.3.4-1.9.7c-1,.4-1.9,1.1-2.7,1.9s-.9.8-1.3,1.3c-1.4,1.9-3.7,4.6-4.9,6.5s-1.5,3.7-1.3,5.9,1.4,2.3,2.7,2,2-.4,3-.5c15.1-1.2,30.8.2,45.7-1.9h0ZM56.3,55.3l-.2-17.3c-.6-4.6,0-9.4-1.1-14-2.7-.1-5.5,0-8.2,0-5.8.3-11.7.7-17.5,1-6.4.3-13,0-19.3.8s-.7.2-1.1.3c-.9.3-1.4,1.1-1.4,2s.2,1.7.2,2.5c.2,8.5.5,16.6,1.5,25.1s.3,1.4.5,1.6l4.2-.5-.8-23c0-.7.4-1.3,1.1-1.4s1.1-.2,1.3-.3c1.2-.2,6.1-.8,6.9-.6,1.8.6,1.2,6.6,1.3,8.3.2,4.2.1,9.1.4,13.2s.3,1,.4,1.4c.3.8,1,1.3,1.9,1.2l3-.2c-.4-2.5-.2-5.2-.4-7.8-.4-5.2-.4-9.7-.6-14.8s0-1.6-.1-2c-.1-1.1,1.4-2.2,2.3-2.3,2.8-.5,6.3-.3,9.2-.7,1.9-.3,5.3-1,7.2-.5s1.1.6,1.3.9c1.8,2.1,1.2,10.2,1.2,13.2,0,3.2.6,7,.8,10.3s-.1,1.8,0,2.8.7,1.1,1.3,1l4.5-.5ZM22.5,54.2l-1-19.5c-.5-1.7-3.9-.4-5.3-.3l.4,22.2,5.1-.5h0c.6-.3.9-.9.9-1.5s0-.2,0-.4Z" fill="#242424"/>
</svg>