<?xml version="1.0" encoding="UTF-8"?>
<svg id="Layer_1" xmlns="http://www.w3.org/2000/svg" baseProfile="tiny" version="1.2" viewBox="0 0 60 60">
  <!-- Generator: Adobe Illustrator 29.1.0, SVG Export Plug-In . SVG Version: 2.1.0 Build 142)  -->
  <path d="M35.5,2l1.8,8c0,.4.4.8.8.9,2.3.6,4.3,1.5,6,3s.7.4,1.1.3c2.1-.7,4.2-2.7,6.4-2s1.9,1.9,2.4,2.8c.8,1.3,1.4,1.3,2.2,2.9.4.9,1,2,.2,3.3s-2.8,1.2-3.9,2.1-.5.9-.3,1.4c.8,1.6,1.5,3.3,1.6,5.1s-1.7,4.9,1.4,6.6c1.4.8,4.5.7,4.4,2.7s-1.4,3.7-2.1,4.8-1,3.2-1.6,4c-2.4,3.1-5.7-1.9-8-1.3s-4.2,3.4-5.7,4.1c-1.8.9-3.6,1.1-5.5,1.5s-.8.5-.9,1c-.2,1.9.4,4.5-1.3,5.6s-8,1-9.8.5-.3-.1-.4-.3c-1.3-1.4-.4-5.1-1.1-6s-5-2.7-6.4-4.3-.8-.5-1.3-.3c-2.6,1-5.8,5.2-8.5,3.1s-.7-1.3-.8-1.4c-1-1.9-3.5-6.9-3.5-8.4,0-1.5,2.4-2.5,4.3-2.9s1-.7.8-1.4c-.4-2.2.2-4.5.8-6.7s-.3-1.3-1-1.4c-2.4-.2-6.4-1.7-6.8-2.9-1-3,1.1-7.7,2.8-10.4s1.1-1.6,2.4-1.1,3.9,1.8,5.8,2.3,1.1,0,1.3-.6c1.6-3,5.3-5.5,9-5.8s1.1-.6,1.1-1.2c0-1.2-.2-2.4-.3-3.6s-1.4-3.7-.2-4.6c2.1-1.5,8.4-.5,11.8-.3s.9.4,1,.9ZM34.9,11.2c-.4-2.5-.1-5.1-1.1-7.5s-.5-.6-.9-.7c-1.5-.2-4.9,0-5.5.2-1.6.5-.2,7.9-1.8,9.2s-3.6.9-5.1,1.4-4.3,3.3-5,4.2-1.1,1.6-1.6,2.2-.8.6-1.3.4c-1.6-.7-4.2-3.4-6-2.5s-2,2.7-2.6,4,0,.9.3,1.2c1,.9,2.6,1.1,3.5,1.7s1,.6,1.8,1.2.2.2.3.2c1.6,1.1,2.6,3,2.3,4.9s-1.1,4.6-.9,6.2.2,1.4,0,2.2-1.4,1.6-2.9,1.7-1.2.8-1,1.5c.7,2.1,2.1,5.6,3.3,5.5s2.5-1.6,2.8-1.8c.6-.4,1.2-.9,1.7-1.2,2.5-1.2,4,.8,5.9,1.9,1.7,1,3.1,2.3,4.9,3s.7.6.7,1.1v4.1c-.2.7.4,1.2,1.1,1.2l4.5-.5c.5,0,.9-.5,1-1,.2-2.2-1-5.2,1.7-5.8s6.7-1.6,9.8-3.9c3.6-2.6,2.3-1.7,3.6-2.6s2.7,1.2,4,1.7,1.1,0,1.4-.5l2.3-3.8c.2-.4.2-.9,0-1.3-2.2-2.6-6,0-5.8-4.7s1.5-4.9-.2-8.8c-.4-1-1.8-2.3-1.8-3,.2-1.7,4.3-1.3,4.3-3.6s-2-4.6-3.2-4.5-4.3,2.4-6.3,2.8-.9-.1-1.1-.5c-1.6-2.4-3.5-3.6-6.2-4.7s-.6-.5-.7-.8Z" fill="#242424"/>
  <path d="M39,22.9c5.3,5.6,5.3,15.1-3.6,17.3-6.2,1.6-17.4-.9-17-8.1.3-6.7,7.1-13.2,14.7-12.5,2.5.2,4.4,1.6,6,3.2ZM23.6,36.8c.9,1,6.6,2.1,8.1,2.1,5.5,0,10-3.6,9.2-8.7-.2-1.4-.4-1.9-1-3s-1.4-1.9-3.7-2.7c-4.6-1.6-9.4.2-11.8,3.9s-2.7,6.2-.8,8.4Z" fill="#242424"/>
</svg>