<?xml version="1.0" encoding="UTF-8"?>
<svg id="Layer_1" xmlns="http://www.w3.org/2000/svg" baseProfile="tiny" version="1.2" viewBox="0 0 60 60">
  <!-- Generator: Adobe Illustrator 29.1.0, SVG Export Plug-In . SVG Version: 2.1.0 Build 142)  -->
  <path d="M59.4,4.7c0,.1,0,1.8,0,2-.7,3.4-8.5,6.5-12.7,8-.6.2-.9,1-.6,1.5.5.8,1.2,1.9,1.4,2.2.7,1.5,1.4,5.3,1.2,6.6-.5,3-1.1,5.7-2,8.5-2.1,6.8-4.2,14.1-6.9,20.7s-2.2,4.1-3.3,4.7c-2.6,1.6-9.6-2.2-12.5-3-1.8-.5-3.9-.7-5.8-1.2-4.7-1.4-11.2-4-15.3-6.6-4.4-2.8-1.9-6.4-1.1-9.5,2.3-8.1,4.9-14.7,8.3-22.4,1-2.4.6-2,2.9-5.4s10.6-6.3,14.3-8,5.6-2.6,7.7-2.3c3,.4,4.2,3.7,5.8,5.6s.1,0,.2,0c.9-.1,4.1-1.9,4.9-2.3,1.4-.5,6-1.9,7.5-1.8s5.3,1.4,5.9,2.5ZM56.4,4.5c-.2,0-1.8-.6-2-.7-1.6-.6-10.2,2.7-11.8,3.7l-.3.5,2,4.4c0,0,.1.1.2.1.5,0,2.2-.4,2.6-.5,3.6-1,6.4-2.6,9.2-4.7.4-.3,1.8-2.1,0-2.8ZM35.4,9.5c1.2-.8,2.9-1.6,2.4-3.1s-2.3-2.5-3.2-2.8c-1.3-.5-5.9,1.3-7.2,1.9-10.2,4.6-13.2,8.5-17.2,17.4-2.2,4.8-4.7,11.5-5.6,17-.4,2.5-.5,4.2,1.7,6.5,3.1,3.2,9.7,5.2,13.9,6.6,4.4,1.5,10.7,4.5,14.8,2.5s3.3-4.2,4.1-6.1c4.5-10.6,7.9-15.7,7-27.4,0-1.3-1.3-2.9-1.7-4.3-.3-1.2-1.9-3.3-2.5-4.6s-.4-1.2-.6-1.8c-.4-.9-1.2-1.5-2.2-1.6h0s0,0-.1,0l-6.3,3.6v.3c4.4,4,1.3,13.2-6,8.8s-2.2-6.9,0-8.9,2.7-.6,4.3-1.1,3.7-2.4,4.3-2.8ZM32,15.6c-.2-.5-.7-.1-1.1.4s-.1,2.5.7,2.4.1,0,.2,0l.2-.2c.5-.6.6-1.4.3-2.1l-.2-.5ZM31.2,19.6c-1.4,0-2.6-.2-3.3-1.5s0,0,0-.1v-2.3c.1-.4-.4-.7-.7-.3-3.6,3.7,1.7,8.6,4.3,4.7,0-.2,0-.4-.2-.4Z" fill="#242424"/>
</svg>