<?xml version="1.0" encoding="UTF-8"?>
<svg id="Layer_1" xmlns="http://www.w3.org/2000/svg" baseProfile="tiny" version="1.2" viewBox="0 0 60 60">
  <!-- Generator: Adobe Illustrator 29.1.0, SVG Export Plug-In . SVG Version: 2.1.0 Build 142)  -->
  <path d="M37.6,10.3c0,.6.6,1.1,1.3,1.1,1,0,4.7-.2,5.6,0,2.6.7,4.8,2.6,4.7,5-.1,2.8-5.8,5.5-5.7,6.5s1.7,1.3,2.4,2.1,1.4,2.4,1.5,3.1c1,6.7-7.6,6.7-13.5,7.1-.7,0-1,.6-1.1,1.3-.5,2.8-.8,5.7-.7,8.4.1,3,1,7.2,2.1,10s2.4,2.5.5,3.8c-1.7,1.2-8.3,1.3-8.4-1.1s2.6-4.7,3-6.4.5-4.1.6-6.3-.2-5.7-.7-8.5-.6-1-1.2-1c-4.4-.3-13.2-.2-15.2-3.4s-.1-4.8,1.2-6.3,2-1.3,1.9-2.1-4.3-2.1-4.8-3.1c-1.8-3.9.7-9.2,5.9-9.8,1-.1,3.2.9,4,.9s1.2,0,1.1-.8c-.2-2.3,1.3-6.7,2.3-7.8,1.4-1.6,2.9-2.3,3.7-2.4,5-.6,9.1,5.7,9.3,9.8ZM30.3,21.5c.6,0,1.2.3,1.3.9.6,2.1-.1,6.8,0,7.7.2,2.7,0,3.3,4.5,3.2,4.6-.2,11-1.4,7.9-6.4s-1.1-1.1-1.9-1.5-2.3-1.2-2.5-2.2.2-1.1.8-1.3c1.3-.5,3.8-1.5,4.9-2.1,1.7-1,2-3.7,1.7-4.6-.8-2.1-3.4-2.5-5.1-2.7-2.6-.3-3.9.9-5.9,1-2.9.3-.9-3.7-1.6-5.9s-.5-2.9-3.6-4.5-6.1,4.8-5.9,7.8,1.2,1.8-.1,2.4c-1.6.8-2.8.5-4.2-.2-1.2-.5-5.3-1.3-6.6,1.9-.3.7-.4,2.9,0,3.8s2,1.3,3.1,1.7l2.6,1.1c.8.3,1.9,1.2,1.4,1.9-1,1.3-1.5,1.4-3.3,2.2s-1.6,1.2-1.9,2.2c-.4,1.5-.7,2.6.9,4.1s8.5,2,12,1.7,1.1-.6,1.1-1.2c0-3.3-.9-6.5-.6-9.8s.5-1.1,1.1-1.1h0Z" fill="#242424"/>
</svg>